<mxfile host="Electron" modified="2023-08-29T07:29:25.773Z" agent="Mozilla/5.0 (X11; Linux x86_64) AppleWebKit/537.36 (KHTML, like Gecko) draw.io/21.3.7 Chrome/112.0.5615.204 Electron/24.5.0 Safari/537.36" etag="95kgdxaZkESMcJIn5kp5" version="21.3.7" type="device">
  <diagram name="General Plan" id="OGCX2nEGkCkGxa0oHF3A">
    <mxGraphModel dx="2284" dy="839" grid="1" gridSize="10" guides="1" tooltips="1" connect="1" arrows="1" fold="1" page="1" pageScale="1" pageWidth="850" pageHeight="1100" math="0" shadow="0">
      <root>
        <mxCell id="0" />
        <mxCell id="1" parent="0" />
        <mxCell id="GKQWI9ghuT4y3DB09Xu3-1" value="" style="swimlane;fontStyle=2;childLayout=stackLayout;horizontal=1;startSize=28;horizontalStack=1;resizeParent=1;resizeParentMax=0;resizeLast=0;collapsible=0;marginBottom=0;swimlaneFillColor=none;fontFamily=Permanent Marker;fontSize=16;points=[];verticalAlign=top;stackBorder=0;resizable=1;strokeWidth=2;sketch=1;disableMultiStroke=1;" parent="1" vertex="1">
          <mxGeometry x="-25" y="20" width="900" height="750" as="geometry" />
        </mxCell>
        <object label="TO DO" status="New" id="GKQWI9ghuT4y3DB09Xu3-2">
          <mxCell style="swimlane;strokeWidth=2;fontFamily=Permanent Marker;html=0;startSize=1;verticalAlign=bottom;spacingBottom=5;points=[];childLayout=stackLayout;stackBorder=20;stackSpacing=20;resizeLast=0;resizeParent=1;horizontalStack=0;collapsible=0;sketch=1;strokeColor=none;fillStyle=solid;fillColor=#A0522D;" parent="GKQWI9ghuT4y3DB09Xu3-1" vertex="1">
            <mxGeometry y="28" width="300" height="722" as="geometry" />
          </mxCell>
        </object>
        <object label="Set up an Unreal Project" placeholders="1" id="GKQWI9ghuT4y3DB09Xu3-9">
          <mxCell style="whiteSpace=wrap;html=1;strokeWidth=2;fillColor=#d80073;fontStyle=1;spacingTop=0;rounded=1;arcSize=9;points=[];sketch=1;fontFamily=Permanent Marker;hachureGap=8;fillWeight=1;strokeColor=#A50040;shadow=0;fillOpacity=30;strokeOpacity=100;fontColor=#ffffff;" parent="GKQWI9ghuT4y3DB09Xu3-2" vertex="1">
            <mxGeometry x="20" y="21" width="260" height="40" as="geometry" />
          </mxCell>
        </object>
        <object label="Implement character running" placeholders="1" id="G28G8z8e1_YZeOszFCHd-1">
          <mxCell style="whiteSpace=wrap;html=1;strokeWidth=2;fillColor=#d80073;fontStyle=1;spacingTop=0;rounded=1;arcSize=9;points=[];sketch=1;fontFamily=Permanent Marker;hachureGap=8;fillWeight=1;strokeColor=#A50040;shadow=0;fillOpacity=30;strokeOpacity=100;fontColor=#ffffff;" vertex="1" parent="GKQWI9ghuT4y3DB09Xu3-2">
            <mxGeometry x="20" y="81" width="260" height="40" as="geometry" />
          </mxCell>
        </object>
        <object label="Implement jumping" placeholders="1" id="G28G8z8e1_YZeOszFCHd-2">
          <mxCell style="whiteSpace=wrap;html=1;strokeWidth=2;fillColor=#d80073;fontStyle=1;spacingTop=0;rounded=1;arcSize=9;points=[];sketch=1;fontFamily=Permanent Marker;hachureGap=8;fillWeight=1;strokeColor=#A50040;shadow=0;fillOpacity=30;strokeOpacity=100;fontColor=#ffffff;" vertex="1" parent="GKQWI9ghuT4y3DB09Xu3-2">
            <mxGeometry x="20" y="141" width="260" height="40" as="geometry" />
          </mxCell>
        </object>
        <object label="Implement dash" placeholders="1" id="G28G8z8e1_YZeOszFCHd-4">
          <mxCell style="whiteSpace=wrap;html=1;strokeWidth=2;fillColor=#d80073;fontStyle=1;spacingTop=0;rounded=1;arcSize=9;points=[];sketch=1;fontFamily=Permanent Marker;hachureGap=8;fillWeight=1;strokeColor=#A50040;shadow=0;fillOpacity=30;strokeOpacity=100;fontColor=#ffffff;" vertex="1" parent="GKQWI9ghuT4y3DB09Xu3-2">
            <mxGeometry x="20" y="201" width="260" height="40" as="geometry" />
          </mxCell>
        </object>
        <object label="Add NPCs" placeholders="1" id="G28G8z8e1_YZeOszFCHd-3">
          <mxCell style="whiteSpace=wrap;html=1;strokeWidth=2;fillColor=#d80073;fontStyle=1;spacingTop=0;rounded=1;arcSize=9;points=[];sketch=1;fontFamily=Permanent Marker;hachureGap=8;fillWeight=1;strokeColor=#A50040;shadow=0;fillOpacity=30;strokeOpacity=100;fontColor=#ffffff;" vertex="1" parent="GKQWI9ghuT4y3DB09Xu3-2">
            <mxGeometry x="20" y="261" width="260" height="40" as="geometry" />
          </mxCell>
        </object>
        <object label="Implement smackdown" placeholders="1" id="G28G8z8e1_YZeOszFCHd-5">
          <mxCell style="whiteSpace=wrap;html=1;strokeWidth=2;fillColor=#d80073;fontStyle=1;spacingTop=0;rounded=1;arcSize=9;points=[];sketch=1;fontFamily=Permanent Marker;hachureGap=8;fillWeight=1;strokeColor=#A50040;shadow=0;fillOpacity=30;strokeOpacity=100;fontColor=#ffffff;" vertex="1" parent="GKQWI9ghuT4y3DB09Xu3-2">
            <mxGeometry x="20" y="321" width="260" height="40" as="geometry" />
          </mxCell>
        </object>
        <object label="Implement simple enemies" placeholders="1" id="G28G8z8e1_YZeOszFCHd-6">
          <mxCell style="whiteSpace=wrap;html=1;strokeWidth=2;fillColor=#d80073;fontStyle=1;spacingTop=0;rounded=1;arcSize=9;points=[];sketch=1;fontFamily=Permanent Marker;hachureGap=8;fillWeight=1;strokeColor=#A50040;shadow=0;fillOpacity=30;strokeOpacity=100;fontColor=#ffffff;" vertex="1" parent="GKQWI9ghuT4y3DB09Xu3-2">
            <mxGeometry x="20" y="381" width="260" height="40" as="geometry" />
          </mxCell>
        </object>
        <object label="Build a map" placeholders="1" id="G28G8z8e1_YZeOszFCHd-7">
          <mxCell style="whiteSpace=wrap;html=1;strokeWidth=2;fillColor=#d80073;fontStyle=1;spacingTop=0;rounded=1;arcSize=9;points=[];sketch=1;fontFamily=Permanent Marker;hachureGap=8;fillWeight=1;strokeColor=#A50040;shadow=0;fillOpacity=30;strokeOpacity=100;fontColor=#ffffff;" vertex="1" parent="GKQWI9ghuT4y3DB09Xu3-2">
            <mxGeometry x="20" y="441" width="260" height="40" as="geometry" />
          </mxCell>
        </object>
        <object label="Add a boss fight" placeholders="1" id="G28G8z8e1_YZeOszFCHd-8">
          <mxCell style="whiteSpace=wrap;html=1;strokeWidth=2;fillColor=#d80073;fontStyle=1;spacingTop=0;rounded=1;arcSize=9;points=[];sketch=1;fontFamily=Permanent Marker;hachureGap=8;fillWeight=1;strokeColor=#A50040;shadow=0;fillOpacity=30;strokeOpacity=100;fontColor=#ffffff;" vertex="1" parent="GKQWI9ghuT4y3DB09Xu3-2">
            <mxGeometry x="20" y="501" width="260" height="40" as="geometry" />
          </mxCell>
        </object>
        <object label="DOING" status="In progress" id="GKQWI9ghuT4y3DB09Xu3-4">
          <mxCell style="swimlane;strokeWidth=2;fontFamily=Permanent Marker;html=0;startSize=1;verticalAlign=bottom;spacingBottom=5;points=[];childLayout=stackLayout;stackBorder=20;stackSpacing=20;resizeLast=0;resizeParent=1;horizontalStack=0;collapsible=0;sketch=1;strokeColor=none;fillStyle=solid;fillColor=#006600;" parent="GKQWI9ghuT4y3DB09Xu3-1" vertex="1">
            <mxGeometry x="300" y="28" width="300" height="722" as="geometry" />
          </mxCell>
        </object>
        <object label="Create the design document" placeholders="1" id="GKQWI9ghuT4y3DB09Xu3-8">
          <mxCell style="whiteSpace=wrap;html=1;strokeWidth=2;fillColor=#60a917;fontStyle=1;spacingTop=0;rounded=1;arcSize=9;points=[];sketch=1;fontFamily=Permanent Marker;hachureGap=8;fillWeight=1;strokeColor=#2D7600;shadow=0;fillOpacity=30;strokeOpacity=100;fontColor=#ffffff;" parent="GKQWI9ghuT4y3DB09Xu3-4" vertex="1">
            <mxGeometry x="20" y="21" width="260" height="40" as="geometry" />
          </mxCell>
        </object>
        <object label="DONE" status="Completed" id="GKQWI9ghuT4y3DB09Xu3-6">
          <mxCell style="swimlane;strokeWidth=2;fontFamily=Permanent Marker;html=0;startSize=1;verticalAlign=bottom;spacingBottom=5;points=[];childLayout=stackLayout;stackBorder=20;stackSpacing=20;resizeLast=0;resizeParent=1;horizontalStack=0;collapsible=0;sketch=1;strokeColor=none;fillStyle=solid;fillColor=#1BA1E2;" parent="GKQWI9ghuT4y3DB09Xu3-1" vertex="1">
            <mxGeometry x="600" y="28" width="300" height="722" as="geometry" />
          </mxCell>
        </object>
      </root>
    </mxGraphModel>
  </diagram>
</mxfile>
